<svg width="117" height="29" viewBox="0 0 117 29" fill="none" xmlns="http://www.w3.org/2000/svg">
<path d="M42.5852 27.9091V9.90909H45.6193V12.0739H45.7983C45.9574 11.7557 46.1818 11.4176 46.4716 11.0597C46.7614 10.696 47.1534 10.3864 47.6477 10.1307C48.142 9.86932 48.7727 9.73864 49.5398 9.73864C50.5511 9.73864 51.4631 9.99716 52.2756 10.5142C53.0938 11.0256 53.7415 11.7841 54.2188 12.7898C54.7017 13.7898 54.9432 15.017 54.9432 16.4716C54.9432 17.9091 54.7074 19.1307 54.2358 20.1364C53.7642 21.142 53.1222 21.9091 52.3097 22.4375C51.4972 22.9659 50.5767 23.2301 49.5483 23.2301C48.7983 23.2301 48.1761 23.1051 47.6818 22.8551C47.1875 22.6051 46.7898 22.304 46.4886 21.9517C46.1932 21.5937 45.9631 21.2557 45.7983 20.9375H45.6705V27.9091H42.5852ZM45.6108 16.4545C45.6108 17.3011 45.7301 18.0426 45.9688 18.679C46.2131 19.3153 46.5625 19.8125 47.017 20.1705C47.4773 20.5227 48.0341 20.6989 48.6875 20.6989C49.3693 20.6989 49.9403 20.517 50.4006 20.1534C50.8608 19.7841 51.2074 19.2812 51.4403 18.6449C51.679 18.0028 51.7983 17.2727 51.7983 16.4545C51.7983 15.642 51.6818 14.9205 51.4489 14.2898C51.2159 13.6591 50.8693 13.1648 50.4091 12.8068C49.9489 12.4489 49.375 12.2699 48.6875 12.2699C48.0284 12.2699 47.4688 12.4432 47.0085 12.7898C46.5483 13.1364 46.1989 13.6222 45.9602 14.2472C45.7273 14.8722 45.6108 15.608 45.6108 16.4545ZM61.3523 23.2642C60.5227 23.2642 59.7756 23.1165 59.1108 22.821C58.4517 22.5199 57.929 22.0767 57.5426 21.4915C57.1619 20.9062 56.9716 20.1847 56.9716 19.3267C56.9716 18.5881 57.108 17.9773 57.3807 17.4943C57.6534 17.0114 58.0256 16.625 58.4972 16.3352C58.9688 16.0455 59.5 15.8267 60.0909 15.679C60.6875 15.5256 61.304 15.4148 61.9403 15.3466C62.7074 15.267 63.3295 15.196 63.8068 15.1335C64.2841 15.0653 64.6307 14.9631 64.8466 14.8267C65.0682 14.6847 65.179 14.4659 65.179 14.1705V14.1193C65.179 13.4773 64.9886 12.9801 64.608 12.6278C64.2273 12.2756 63.679 12.0994 62.9631 12.0994C62.2074 12.0994 61.608 12.2642 61.1648 12.5938C60.7273 12.9233 60.4318 13.3125 60.2784 13.7614L57.3977 13.3523C57.625 12.5568 58 11.892 58.5227 11.358C59.0455 10.8182 59.6847 10.4148 60.4403 10.1477C61.196 9.875 62.0313 9.73864 62.946 9.73864C63.5767 9.73864 64.2045 9.8125 64.8295 9.96023C65.4545 10.108 66.0256 10.3523 66.5426 10.6932C67.0597 11.0284 67.4744 11.4858 67.7869 12.0653C68.1051 12.6449 68.2642 13.3693 68.2642 14.2386V23H65.2983V21.2017H65.196C65.0085 21.5653 64.7443 21.9062 64.4034 22.2244C64.0682 22.5369 63.6449 22.7898 63.1335 22.983C62.6278 23.1705 62.0341 23.2642 61.3523 23.2642ZM62.1534 20.9972C62.7727 20.9972 63.3097 20.875 63.7642 20.6307C64.2188 20.3807 64.5682 20.0511 64.8125 19.642C65.0625 19.233 65.1875 18.7869 65.1875 18.304V16.7614C65.0909 16.8409 64.9261 16.9148 64.6932 16.983C64.4659 17.0511 64.2102 17.1108 63.9261 17.1619C63.642 17.2131 63.3608 17.2585 63.0824 17.2983C62.804 17.3381 62.5625 17.3722 62.358 17.4006C61.8977 17.4631 61.4858 17.5653 61.1222 17.7074C60.7585 17.8494 60.4716 18.0483 60.2614 18.304C60.0511 18.554 59.946 18.8778 59.946 19.2756C59.946 19.8438 60.1534 20.2727 60.5682 20.5625C60.983 20.8523 61.5114 20.9972 62.1534 20.9972ZM81.7131 13.3693L78.9006 13.6761C78.821 13.392 78.6818 13.125 78.483 12.875C78.2898 12.625 78.0284 12.4233 77.6989 12.2699C77.3693 12.1165 76.9659 12.0398 76.4886 12.0398C75.8466 12.0398 75.3068 12.179 74.8693 12.4574C74.4375 12.7358 74.2244 13.0966 74.2301 13.5398C74.2244 13.9205 74.3636 14.2301 74.6477 14.4688C74.9375 14.7074 75.4148 14.9034 76.0795 15.0568L78.3125 15.5341C79.5511 15.8011 80.4716 16.2244 81.0739 16.804C81.6818 17.3835 81.9886 18.142 81.9943 19.0795C81.9886 19.9034 81.7472 20.6307 81.2699 21.2614C80.7983 21.8864 80.142 22.375 79.3011 22.7273C78.4602 23.0795 77.4943 23.2557 76.4034 23.2557C74.8011 23.2557 73.5114 22.9205 72.5341 22.25C71.5568 21.5739 70.9744 20.6335 70.7869 19.429L73.7955 19.1392C73.9318 19.7301 74.2216 20.1761 74.6648 20.4773C75.108 20.7784 75.6847 20.929 76.3949 20.929C77.1278 20.929 77.7159 20.7784 78.1591 20.4773C78.608 20.1761 78.8324 19.804 78.8324 19.3608C78.8324 18.9858 78.6875 18.6761 78.3977 18.4318C78.1136 18.1875 77.6705 18 77.0682 17.8693L74.8352 17.4006C73.5795 17.1392 72.6506 16.6989 72.0483 16.0795C71.446 15.4545 71.1477 14.6648 71.1534 13.7102C71.1477 12.9034 71.3665 12.2045 71.8097 11.6136C72.2585 11.017 72.8807 10.5568 73.6761 10.233C74.4773 9.90341 75.4006 9.73864 76.446 9.73864C77.9801 9.73864 79.1875 10.0653 80.0682 10.7188C80.9545 11.3722 81.5028 12.2557 81.7131 13.3693ZM90.2486 23.2557C88.9418 23.2557 87.8196 22.9688 86.8821 22.3949C85.9503 21.821 85.2315 21.0284 84.7259 20.017C84.2259 19 83.9759 17.8295 83.9759 16.5057C83.9759 15.1761 84.2315 14.0028 84.7429 12.9858C85.2543 11.9631 85.9759 11.1676 86.9077 10.5994C87.8452 10.0256 88.9531 9.73864 90.2315 9.73864C91.294 9.73864 92.2344 9.93466 93.0526 10.3267C93.8764 10.7131 94.5327 11.2614 95.0213 11.9716C95.5099 12.6761 95.7884 13.5 95.8565 14.4432H92.9077C92.7884 13.8125 92.5043 13.2869 92.0554 12.8665C91.6122 12.4403 91.0185 12.2273 90.2741 12.2273C89.6435 12.2273 89.0895 12.3977 88.6122 12.7386C88.1349 13.0739 87.7628 13.5568 87.4957 14.1875C87.2344 14.8182 87.1037 15.5739 87.1037 16.4545C87.1037 17.3466 87.2344 18.1136 87.4957 18.7557C87.7571 19.392 88.1236 19.8835 88.5952 20.2301C89.0724 20.571 89.6321 20.7415 90.2741 20.7415C90.7287 20.7415 91.1349 20.6562 91.4929 20.4858C91.8565 20.3097 92.1605 20.0568 92.4048 19.7273C92.6491 19.3977 92.8168 18.9972 92.9077 18.5256H95.8565C95.7827 19.4517 95.5099 20.2727 95.0384 20.9886C94.5668 21.6989 93.9247 22.2557 93.1122 22.6591C92.2997 23.0568 91.3452 23.2557 90.2486 23.2557ZM102.157 23.2642C101.327 23.2642 100.58 23.1165 99.9155 22.821C99.2564 22.5199 98.7337 22.0767 98.3473 21.4915C97.9666 20.9062 97.7763 20.1847 97.7763 19.3267C97.7763 18.5881 97.9126 17.9773 98.1854 17.4943C98.4581 17.0114 98.8303 16.625 99.3018 16.3352C99.7734 16.0455 100.305 15.8267 100.896 15.679C101.492 15.5256 102.109 15.4148 102.745 15.3466C103.512 15.267 104.134 15.196 104.612 15.1335C105.089 15.0653 105.435 14.9631 105.651 14.8267C105.873 14.6847 105.984 14.4659 105.984 14.1705V14.1193C105.984 13.4773 105.793 12.9801 105.413 12.6278C105.032 12.2756 104.484 12.0994 103.768 12.0994C103.012 12.0994 102.413 12.2642 101.969 12.5938C101.532 12.9233 101.237 13.3125 101.083 13.7614L98.2024 13.3523C98.4297 12.5568 98.8047 11.892 99.3274 11.358C99.8501 10.8182 100.489 10.4148 101.245 10.1477C102.001 9.875 102.836 9.73864 103.751 9.73864C104.381 9.73864 105.009 9.8125 105.634 9.96023C106.259 10.108 106.83 10.3523 107.347 10.6932C107.864 11.0284 108.279 11.4858 108.592 12.0653C108.91 12.6449 109.069 13.3693 109.069 14.2386V23H106.103V21.2017H106.001C105.813 21.5653 105.549 21.9062 105.208 22.2244C104.873 22.5369 104.45 22.7898 103.938 22.983C103.433 23.1705 102.839 23.2642 102.157 23.2642ZM102.958 20.9972C103.577 20.9972 104.114 20.875 104.569 20.6307C105.023 20.3807 105.373 20.0511 105.617 19.642C105.867 19.233 105.992 18.7869 105.992 18.304V16.7614C105.896 16.8409 105.731 16.9148 105.498 16.983C105.271 17.0511 105.015 17.1108 104.731 17.1619C104.447 17.2131 104.165 17.2585 103.887 17.2983C103.609 17.3381 103.367 17.3722 103.163 17.4006C102.702 17.4631 102.29 17.5653 101.927 17.7074C101.563 17.8494 101.276 18.0483 101.066 18.304C100.856 18.554 100.751 18.8778 100.751 19.2756C100.751 19.8438 100.958 20.2727 101.373 20.5625C101.788 20.8523 102.316 20.9972 102.958 20.9972ZM115.256 5.54545V23H112.171V5.54545H115.256Z" fill="#0A2641"/>
<rect y="6" width="23" height="22" rx="11" fill="#4851FD"/>
<rect x="10" y="6" width="23" height="22" rx="11" fill="#FF6A2A"/>
</svg>
