<svg width="32" height="32" viewBox="0 0 32 32" fill="none" xmlns="http://www.w3.org/2000/svg">
<path d="M28 13.3334H4M28 16.6667V11.7334C28 9.4932 28 8.3731 27.564 7.51745C27.1805 6.7648 26.5686 6.15288 25.816 5.76939C24.9603 5.33341 23.8402 5.33341 21.6 5.33341H10.4C8.15979 5.33341 7.03969 5.33341 6.18404 5.76939C5.43139 6.15288 4.81947 6.7648 4.43597 7.51745C4 8.3731 4 9.4932 4 11.7334V22.9334C4 25.1736 4 26.2937 4.43597 27.1494C4.81947 27.902 5.43139 28.5139 6.18404 28.8974C7.03969 29.3334 8.15979 29.3334 10.4 29.3334H16M21.3333 2.66675V8.00008M10.6667 2.66675V8.00008M19.3333 25.3334L22 28.0001L28 22.0001" stroke="#0A2641" stroke-width="2" stroke-linecap="round" stroke-linejoin="round"/>
</svg>
