<svg width="32" height="32" viewBox="0 0 32 32" fill="none" xmlns="http://www.w3.org/2000/svg">
<path d="M15.3334 6.66675H15.9126C19.9755 6.66675 22.007 6.66675 22.7782 7.39647C23.4448 8.02724 23.7402 8.95646 23.5602 9.85636C23.352 10.8974 21.6935 12.0706 18.3764 14.4168L12.957 18.25C9.63989 20.5963 7.98134 21.7694 7.77313 22.8105C7.59316 23.7104 7.88858 24.6396 8.55517 25.2704C9.32633 26.0001 11.3578 26.0001 15.4208 26.0001H16.6667M10.6667 6.66675C10.6667 8.87589 8.87583 10.6667 6.66669 10.6667C4.45755 10.6667 2.66669 8.87589 2.66669 6.66675C2.66669 4.45761 4.45755 2.66675 6.66669 2.66675C8.87583 2.66675 10.6667 4.45761 10.6667 6.66675ZM29.3334 25.3334C29.3334 27.5426 27.5425 29.3334 25.3334 29.3334C23.1242 29.3334 21.3334 27.5426 21.3334 25.3334C21.3334 23.1243 23.1242 21.3334 25.3334 21.3334C27.5425 21.3334 29.3334 23.1243 29.3334 25.3334Z" stroke="#0A2641" stroke-width="2" stroke-linecap="round" stroke-linejoin="round"/>
</svg>
